<svg width="80" height="80" viewBox="0 0 80 80" fill="none" xmlns="http://www.w3.org/2000/svg">
    <g filter="url(#filter0_d_37_206)">
        <circle cx="40" cy="36" r="30" fill="#36B8B8" />
        <path
            d="M43 28.6242H47.6242H43ZM52.2484 28.6242H47.6242H52.2484ZM47.6242 28.6242V24V28.6242ZM47.6242 28.6242V33.2484V28.6242Z"
            fill="white" />
        <path
            d="M43 28.6242H47.6242M47.6242 28.6242H52.2484M47.6242 28.6242V24M47.6242 28.6242V33.2484"
            stroke="white" stroke-width="2" stroke-linecap="round" stroke-linejoin="round" />
        <path
            d="M52 36C52 42.6274 46.6274 48 40 48C37.8143 48 35.765 47.4156 34 46.3946L28.6 47.4L29.6054 42C28.5844 40.2349 28 38.1857 28 36C28 29.3726 33.3726 24 40 24"
            stroke="white" stroke-width="2" stroke-linecap="round" stroke-linejoin="round" />
        <path fill-rule="evenodd" clip-rule="evenodd"
            d="M35.4142 37.8285C35.0392 37.8285 34.6794 37.6795 34.4142 37.4143C34.149 37.1491 34 36.7893 34 36.4142C34 36.0392 34.149 35.6794 34.4142 35.4142C34.6794 35.149 35.0392 35 35.4142 35C35.7893 35 36.149 35.149 36.4143 35.4142C36.6795 35.6794 36.8285 36.0392 36.8285 36.4142C36.8285 36.7893 36.6795 37.1491 36.4143 37.4143C36.149 37.6795 35.7893 37.8285 35.4142 37.8285ZM40.1284 37.8285C39.7533 37.8285 39.3936 37.6795 39.1284 37.4143C38.8632 37.1491 38.7142 36.7893 38.7142 36.4142C38.7142 36.0392 38.8632 35.6794 39.1284 35.4142C39.3936 35.149 39.7533 35 40.1284 35C40.5035 35 40.8632 35.149 41.1284 35.4142C41.3937 35.6794 41.5427 36.0392 41.5427 36.4142C41.5427 36.7893 41.3937 37.1491 41.1284 37.4143C40.8632 37.6795 40.5035 37.8285 40.1284 37.8285ZM44.8426 37.8285C44.4675 37.8285 44.1078 37.6795 43.8425 37.4143C43.5773 37.1491 43.4283 36.7893 43.4283 36.4142C43.4283 36.0392 43.5773 35.6794 43.8425 35.4142C44.1078 35.149 44.4675 35 44.8426 35C45.2177 35 45.5774 35.149 45.8426 35.4142C46.1078 35.6794 46.2568 36.0392 46.2568 36.4142C46.2568 36.7893 46.1078 37.1491 45.8426 37.4143C45.5774 37.6795 45.2177 37.8285 44.8426 37.8285Z"
            fill="white" />
    </g>
    <defs>
        <filter id="filter0_d_37_206" x="0" y="0" width="80" height="80"
            filterUnits="userSpaceOnUse" color-interpolation-filters="sRGB">
            <feFlood flood-opacity="0" result="BackgroundImageFix" />
            <feColorMatrix in="SourceAlpha" type="matrix"
                values="0 0 0 0 0 0 0 0 0 0 0 0 0 0 0 0 0 0 127 0" result="hardAlpha" />
            <feOffset dy="4" />
            <feGaussianBlur stdDeviation="5" />
            <feComposite in2="hardAlpha" operator="out" />
            <feColorMatrix type="matrix" values="0 0 0 0 0 0 0 0 0 0 0 0 0 0 0 0 0 0 0.2 0" />
            <feBlend mode="normal" in2="BackgroundImageFix" result="effect1_dropShadow_37_206" />
            <feBlend mode="normal" in="SourceGraphic" in2="effect1_dropShadow_37_206"
                result="shape" />
        </filter>
    </defs>
</svg>
