<svg width="22" height="24" viewBox="0 0 22 24" fill="none" xmlns="http://www.w3.org/2000/svg">
    <path
        d="M10.9999 7.37048C10.156 7.37048 9.33096 7.62075 8.62924 8.08963C7.92751 8.55851 7.38058 9.22494 7.05761 10.0047C6.73464 10.7844 6.65013 11.6424 6.81478 12.4701C6.97943 13.2978 7.38584 14.0582 7.98261 14.655C8.57938 15.2517 9.33971 15.6581 10.1675 15.8228C10.9952 15.9874 11.8532 15.9029 12.6329 15.58C13.4126 15.257 14.0791 14.7101 14.5479 14.0083C15.0168 13.3066 15.2671 12.4816 15.2671 11.6376C15.2658 10.5063 14.8158 9.42168 14.0158 8.62172C13.2159 7.82175 12.1313 7.37177 10.9999 7.37048ZM10.9999 14.3531C10.4629 14.3531 9.93786 14.1938 9.49131 13.8954C9.04475 13.5971 8.69671 13.173 8.49118 12.6768C8.28565 12.1806 8.23188 11.6346 8.33666 11.1079C8.44143 10.5811 8.70005 10.0973 9.07982 9.71751C9.45958 9.33775 9.94343 9.07912 10.4702 8.97435C10.9969 8.86957 11.5429 8.92335 12.0391 9.12887C12.5353 9.3344 12.9594 9.68245 13.2578 10.129C13.5561 10.5756 13.7154 11.1006 13.7154 11.6376C13.7146 12.3576 13.4282 13.0478 12.9192 13.5568C12.4101 14.0659 11.7199 14.3523 10.9999 14.3531Z"
        fill="#191919" fill-opacity="0.5" />
    <path
        d="M21.6459 14.8535L20.1053 13.5853C20.3784 12.3012 20.3784 10.9741 20.1053 9.69001L21.6459 8.42184C21.8236 8.27626 21.9436 8.07219 21.9845 7.84617C22.0255 7.62014 21.9846 7.38693 21.8692 7.1883L20.2879 4.44942C20.1735 4.25014 19.992 4.09809 19.7757 4.02051C19.5595 3.94294 19.3227 3.94492 19.1077 4.0261L17.2379 4.72664C16.2639 3.84658 15.1147 3.18241 13.8659 2.77772L13.5378 0.810421C13.5007 0.583697 13.384 0.377612 13.2087 0.229105C13.0334 0.0805983 12.8109 -0.000621489 12.5812 3.58117e-06H9.41857C9.18884 -0.000613534 8.96639 0.0806029 8.79109 0.229098C8.6158 0.377594 8.49912 0.583662 8.46196 0.810373L8.13406 2.77772C6.88525 3.1824 5.73611 3.84657 4.76205 4.72664L2.89202 4.026C2.67711 3.94488 2.44034 3.94293 2.22412 4.02051C2.0079 4.09809 1.82638 4.25012 1.71206 4.44937L0.130747 7.18844C0.0154183 7.38709 -0.0254234 7.62031 0.0155365 7.84632C0.0564965 8.07234 0.176583 8.2764 0.354287 8.42194L1.89468 9.69001C1.62158 10.9741 1.62158 12.3012 1.89468 13.5853L0.354142 14.8535C0.176465 14.9991 0.0564122 15.2031 0.0154797 15.4292C-0.0254529 15.6552 0.0154085 15.8884 0.130747 16.087L1.71211 18.8259C1.82644 19.0252 2.00799 19.1772 2.22424 19.2548C2.44049 19.3324 2.67729 19.3304 2.89222 19.2492L4.7621 18.5487C5.73616 19.4288 6.8853 20.0929 8.13411 20.4976L8.462 22.4649C8.49915 22.6916 8.61582 22.8977 8.79111 23.0462C8.9664 23.1947 9.18884 23.2759 9.41857 23.2753H12.5812C12.8109 23.276 13.0334 23.1947 13.2087 23.0462C13.384 22.8977 13.5007 22.6917 13.5378 22.465L13.8658 20.4976C15.1146 20.0929 16.2637 19.4288 17.2378 18.5487L19.1077 19.2493C19.3227 19.3304 19.5594 19.3324 19.7757 19.2548C19.9919 19.1772 20.1734 19.0252 20.2877 18.826L21.8689 16.0869C21.9843 15.8883 22.0252 15.6551 21.9843 15.4292C21.9435 15.2032 21.8235 14.9991 21.6459 14.8535ZM19.1905 17.6233L16.8577 16.7493L16.5045 17.1049C15.5325 18.0845 14.3169 18.7871 12.9828 19.1402L12.4979 19.268L12.0884 21.7236H9.91172L9.50236 19.268L9.01746 19.1402C7.68344 18.7871 6.46777 18.0845 5.49586 17.1049L5.1426 16.7493L2.8094 17.6233L1.72123 15.7381L3.64285 14.1562L3.51192 13.6726C3.15187 12.3399 3.15187 10.9355 3.51192 9.60277L3.64285 9.11923L1.72123 7.53728L2.80964 5.65208L5.14246 6.52607L5.49571 6.17044C6.46762 5.19082 7.68329 4.48823 9.01731 4.13516L9.50222 4.00734L9.91152 1.55169H12.0884L12.4978 4.00734L12.9827 4.13516C14.3167 4.48823 15.5324 5.19082 16.5043 6.17044L16.8576 6.52607L19.1904 5.65208L20.2788 7.53723L18.3572 9.11923L18.4881 9.60277C18.8482 10.9355 18.8482 12.3399 18.4881 13.6726L18.3572 14.1562L20.2788 15.7381L19.1905 17.6233Z"
        fill="#191919" fill-opacity="0.5" />
</svg>
